# xmcd
#
# Track frame offsets: 
#        150
#        11708
#        28168
#        44088
#        58955
#        72359
#        85933
#        99639
#        115083
#        129548
#        147169
#
# Disc length: 2221 seconds
#
# Revision: 0
# Processed by: cddbd v1.5.2PL0 Copyright (c) Steve Scherf et al.
# Submitted via: ExactAudioCopy v0.99pb4
#
DISCID=a208ab0b
DTITLE=Viel‰ki Lepposaa - TKU808
DYEAR=2009
DGENRE=Rap
TTITLE0=TKU808
TTITLE1=Se Oli Silloin
TTITLE2=1000km (feat. Haamu)
TTITLE3=Moni Kysyy
TTITLE4=R‰ppinˆrtin El‰m‰‰
TTITLE5=Naurettavaa, Itkett‰v‰‰
TTITLE6=22-04
TTITLE7=Sano
TTITLE8=Viimeinen
TTITLE9=Vainoharhat P‰‰ll‰
TTITLE10=M‰ Pysyn Skarppina (feat. Kosola)
EXTD=
EXTT0=
EXTT1=
EXTT2=
EXTT3=
EXTT4=
EXTT5=
EXTT6=
EXTT7=
EXTT8=
EXTT9=
EXTT10=
PLAYORDER=
